<svg version="1.1" id="Layer_1" xmlns="http://www.w3.org/2000/svg" xmlns:xlink="http://www.w3.org/1999/xlink" x="0px" y="0px"
	 width="100%" viewBox="0 0 500 500" enable-background="new 0 0 500 500" xml:space="preserve">
<path fill="#000000" opacity="1.000000" stroke="none" 
	d="
M242.000000,501.000000 
	C162.666687,501.000000 83.833328,500.971558 5.000208,501.096100 
	C1.575944,501.101501 0.903036,500.423828 0.905301,497.000000 
	C1.013779,333.000092 1.013772,169.000122 0.905334,5.000238 
	C0.903070,1.576918 1.575820,0.903022 4.999885,0.905287 
	C168.999771,1.013774 332.999725,1.013761 496.999634,0.905353 
	C500.422668,0.903090 501.096985,1.575444 501.094727,4.999765 
	C500.986206,168.999649 500.986237,332.999603 501.094604,496.999512 
	C501.096893,500.422272 500.425446,501.100891 497.000275,501.095947 
	C412.166992,500.973480 327.333466,501.000000 242.000000,501.000000 
z"/>
<path fill="#00BF63" opacity="1.000000" stroke="none" 
	d="
M279.888519,122.901375 
	C281.975708,124.757301 283.797089,126.515312 285.572906,128.584808 
	C285.909790,129.087631 286.269287,129.315231 286.862152,129.770645 
	C288.275391,131.085938 289.432373,132.209625 290.397461,133.569641 
	C290.056091,135.122162 291.254425,135.151566 292.433228,135.664627 
	C294.171234,136.940659 295.439941,138.199768 296.525299,139.708984 
	C295.870178,141.406830 297.169312,141.418076 298.390137,141.854858 
	C300.913300,143.148834 302.705841,144.708145 303.425903,147.138916 
	C303.152924,147.922363 303.399323,148.445969 304.167908,149.164215 
	C305.892273,147.778900 306.706116,149.203857 307.553406,150.043320 
	C310.612946,153.074509 313.638794,156.139755 316.753265,159.409866 
	C315.322784,161.753006 317.929443,161.794006 318.934296,162.560532 
	C320.870087,163.615662 322.348297,164.988937 323.966431,166.656677 
	C324.384888,168.026154 325.309601,168.635468 326.312256,169.407242 
	C329.406372,172.011932 332.110046,174.679428 334.848145,177.793472 
	C334.882568,178.240021 335.133179,178.504974 335.311523,178.542877 
	C335.489899,178.580795 335.793701,178.782578 335.953674,178.870117 
	C338.015137,180.755814 339.916595,182.553955 341.962097,184.651489 
	C342.073486,185.355728 342.266815,185.590393 342.884033,185.818329 
	C346.585724,188.889175 349.824890,192.052078 352.402893,195.787399 
	C352.113831,196.808945 352.509155,197.326462 353.844116,197.620239 
	C356.133942,197.793289 356.632172,199.504593 357.924530,200.613525 
	C358.130310,201.030090 358.218323,201.172913 358.390137,201.552734 
	C358.629608,202.087097 358.824768,202.355743 359.244202,202.762634 
	C359.428467,202.929977 359.807648,203.250732 360.018188,203.381622 
	C360.228760,203.512512 360.683960,203.708069 360.898224,203.832367 
	C361.445892,203.998962 361.704773,204.160629 361.965576,204.663818 
	C362.532837,205.811981 362.947174,206.771072 364.053650,207.927582 
	C364.017853,207.872513 364.300171,207.333817 364.803802,207.639801 
	C365.854187,208.277939 366.645569,209.342392 367.439514,210.496735 
	C367.414825,211.603378 367.645966,212.397049 368.705719,213.081619 
	C373.111572,213.974380 374.804413,217.436050 377.251526,219.878510 
	C381.314331,223.933655 385.981934,227.458023 388.962036,232.699615 
	C388.800476,234.394272 389.944611,234.433701 391.389130,234.712463 
	C395.818115,238.529526 399.738617,242.350204 403.782104,246.430023 
	C402.607880,249.275726 406.411469,249.261337 406.144775,251.690918 
	C405.254547,253.006134 404.461884,253.903168 403.392273,254.921082 
	C385.168091,272.635529 367.516296,290.525360 349.730835,308.281067 
	C318.281555,339.677704 286.862885,371.105011 255.261078,402.841339 
	C255.000122,403.447540 254.838730,403.706024 254.335876,403.966034 
	C253.404190,404.501221 252.658951,404.790894 251.482269,404.263000 
	C251.111069,381.187225 250.908371,358.373749 251.120865,335.564117 
	C251.164703,330.858154 249.730682,329.892151 245.302567,329.904602 
	C195.509125,330.044098 145.715103,329.976471 95.455978,329.899292 
	C94.241806,328.788300 94.510078,327.585022 94.510490,326.442719 
	C94.528656,275.646576 94.439125,224.850433 94.767746,173.610229 
	C115.470581,173.110764 135.951431,173.025742 156.432343,173.007019 
	C186.408997,172.979599 216.386017,172.932648 246.361923,173.084793 
	C250.088898,173.103714 251.114502,172.125671 251.087509,168.375381 
	C250.923325,145.561249 251.023819,122.745186 251.101303,99.465164 
	C252.076721,98.184395 253.108292,98.149727 254.676361,98.258316 
	C257.122559,99.370636 258.819244,101.023972 259.922607,103.351204 
	C259.982391,104.042831 260.233276,104.453506 261.057617,105.302658 
	C263.643585,104.373756 264.046387,106.647072 264.825409,107.392281 
	C269.585510,111.945625 274.173126,116.679344 278.962219,121.651962 
	C279.071320,122.360588 279.232758,122.651253 279.888519,122.901375 
z"/>
<path fill="#00BF62" opacity="1.000000" stroke="none" 
	d="
M255.388031,403.057037 
	C255.717468,400.350098 257.856201,398.656952 259.725861,396.785583 
	C280.190643,376.302734 300.667694,355.832153 321.141510,335.358337 
	C346.309387,310.190491 371.473663,285.019043 396.653168,259.862854 
	C398.405975,258.111664 399.969147,256.091156 402.786652,255.147980 
	C403.131866,256.982635 401.577423,257.900604 400.435150,259.043457 
	C353.246277,306.255768 306.045868,353.456543 258.831177,400.643005 
	C257.918030,401.555573 257.213409,402.805634 255.388031,403.057037 
z"/>
<path fill="#00BF80" opacity="1.000000" stroke="none" 
	d="
M94.606689,173.350739 
	C94.991005,225.083389 94.992317,277.000610 94.992180,329.375977 
	C93.288612,329.058533 94.039368,327.514069 94.038391,326.340851 
	C93.996490,276.064941 94.003548,225.789017 94.015182,175.513092 
	C94.015335,174.853821 94.151176,174.194580 94.606689,173.350739 
z"/>
<path fill="#00BF63" opacity="1.000000" stroke="none" 
	d="
M406.350342,251.917221 
	C404.862213,250.777496 403.751587,249.410721 403.880219,247.079651 
	C405.397980,248.053085 407.735321,248.956207 406.350342,251.917221 
z"/>
<path fill="#00BF62" opacity="1.000000" stroke="none" 
	d="
M251.103058,404.320587 
	C251.903534,404.009338 252.640381,404.019287 253.745636,404.035767 
	C253.437698,405.156128 252.681686,406.180756 251.324600,406.531952 
	C251.229553,405.901917 251.134506,405.271851 251.103058,404.320587 
z"/>
<path fill="#00BF63" opacity="1.000000" stroke="none" 
	d="
M254.946823,97.677643 
	C254.158661,98.265038 253.168732,98.541870 251.672699,98.909622 
	C251.148331,95.802933 253.225815,97.196472 254.946823,97.677643 
z"/>
<path fill="#00BF62" opacity="1.000000" stroke="none" 
	d="
M326.579376,169.169128 
	C325.535614,169.340073 324.649414,168.912323 324.185913,167.339310 
	C324.889587,167.632019 325.672821,168.312927 326.579376,169.169128 
z"/>
<path fill="#00BF62" opacity="1.000000" stroke="none" 
	d="
M359.250000,204.194504 
	C358.748291,203.500854 358.496613,203.001694 358.122437,202.251282 
	C358.180237,201.853058 358.360474,201.706116 358.827087,201.758347 
	C359.702240,202.445557 360.291046,202.933578 360.996155,203.689117 
	C360.927094,203.964127 360.741669,203.971588 360.278137,203.989517 
	C359.833344,204.129669 359.666656,204.259338 359.250000,204.194504 
z"/>
<path fill="#00BF63" opacity="1.000000" stroke="none" 
	d="
M319.201538,161.926086 
	C318.243958,162.100861 317.357330,161.615417 316.916504,160.027908 
	C317.556519,160.288315 318.283844,160.949051 319.201538,161.926086 
z"/>
<path fill="#00BF62" opacity="1.000000" stroke="none" 
	d="
M364.879395,207.844757 
	C364.123718,207.446991 363.425751,206.801804 362.384888,205.521286 
	C363.007050,205.789749 363.972076,206.693542 364.879395,207.844757 
z"/>
<path fill="#00BF63" opacity="1.000000" stroke="none" 
	d="
M298.683105,141.452576 
	C298.240417,141.360596 297.605743,140.897690 296.656525,140.196915 
	C297.324493,139.823730 297.920532,140.428329 298.683105,141.452576 
z"/>
<path fill="#00BF62" opacity="1.000000" stroke="none" 
	d="
M280.090820,122.810539 
	C279.863770,122.761856 279.573242,122.524437 279.194458,122.118996 
	C279.413239,122.174583 279.720276,122.398193 280.090820,122.810539 
z"/>
<path fill="#00BF63" opacity="1.000000" stroke="none" 
	d="
M391.610046,234.321960 
	C391.119110,234.303085 390.340637,233.897324 389.202301,233.230850 
	C390.003937,232.431213 390.660278,233.190689 391.610046,234.321960 
z"/>
<path fill="#00BF62" opacity="1.000000" stroke="none" 
	d="
M369.444641,212.680344 
	C368.887299,212.528854 368.444366,212.020859 367.668579,211.137329 
	C368.509552,210.666519 368.983917,211.566833 369.444641,212.680344 
z"/>
<path fill="#00BF62" opacity="1.000000" stroke="none" 
	d="
M354.365723,197.369354 
	C353.900238,197.303802 353.413574,196.907944 352.521118,196.250183 
	C353.297241,195.407440 353.758881,196.354843 354.365723,197.369354 
z"/>
<path fill="#00BF62" opacity="1.000000" stroke="none" 
	d="
M343.020203,185.724091 
	C342.804565,185.719025 342.495300,185.480270 342.146088,185.096207 
	C342.379608,185.130737 342.653107,185.310562 343.020203,185.724091 
z"/>
<path fill="#00BF62" opacity="1.000000" stroke="none" 
	d="
M336.021515,178.725800 
	C335.643982,178.968506 335.174286,178.979355 334.352295,178.995087 
	C333.882294,178.833328 333.764557,178.666672 333.823425,178.250000 
	C334.186127,177.993637 334.372223,177.987259 334.837463,177.970581 
	C335.469910,178.012726 335.740845,178.190613 336.021515,178.725800 
z"/>
<path fill="#00BF63" opacity="1.000000" stroke="none" 
	d="
M292.792725,135.469391 
	C292.197418,135.254852 291.492249,134.828171 290.496338,134.103729 
	C290.205566,133.805969 290.446564,133.745789 290.478882,133.865707 
	C290.793457,134.177185 291.075775,134.368683 291.798096,134.821442 
	C292.238159,135.082626 292.682892,135.257248 292.792725,135.469391 
z"/>
<path fill="#00BF63" opacity="1.000000" stroke="none" 
	d="
M359.011169,201.712463 
	C358.927887,201.966309 358.742371,201.975067 358.278442,201.991913 
	C358.004974,201.814529 358.009979,201.629074 358.028625,201.165436 
	C358.331146,201.080643 358.620026,201.274033 359.011169,201.712463 
z"/>
<path fill="#00BF63" opacity="1.000000" stroke="none" 
	d="
M286.951538,129.659775 
	C286.768127,129.720459 286.417816,129.478668 285.797424,129.066589 
	C285.946442,129.049973 286.365570,129.203644 286.951538,129.659775 
z"/>
<path fill="#00BF63" opacity="1.000000" stroke="none" 
	d="
M292.095154,134.805191 
	C291.944153,134.904129 291.650146,134.725632 290.933655,134.266388 
	C291.196625,133.621140 291.554413,134.127548 292.095154,134.805191 
z"/>
<path fill="#00BF63" opacity="1.000000" stroke="none" 
	d="
M304.749695,148.879715 
	C304.230743,148.944000 303.947266,148.446396 303.373108,147.632385 
	C303.974030,147.161148 304.602661,147.505844 304.749695,148.879715 
z"/>
<path fill="#00BF63" opacity="1.000000" stroke="none" 
	d="
M261.836487,105.360962 
	C261.307587,105.397247 260.984070,105.053398 260.196045,104.170830 
	C260.858704,103.470055 261.581573,104.000488 261.836487,105.360962 
z"/>
<path fill="#00BF63" opacity="1.000000" stroke="none" 
	d="
M359.123444,204.032181 
	C359.000000,204.000000 359.500000,204.000000 359.750000,204.000000 
	C360.000000,204.000000 359.626831,204.077866 359.626831,204.077866 
	C359.626831,204.077866 359.246887,204.064362 359.123444,204.032181 
z"/>
<path fill="#00BF63" opacity="1.000000" stroke="none" 
	d="
M333.967834,178.123444 
	C334.000000,178.000000 334.000000,178.500000 334.000000,178.750000 
	C333.917694,178.753494 333.896240,178.502457 333.967834,178.123444 
z"/>
</svg>